# xmcd
#
# Track frame offsets:
#	150
#	18827
#	34503
#	55938
#	75779
#	101566
#	120897
#	149599
#	175897
#
# Disc length: 2516 seconds
#
# Revision: 1
# Processed by: cddbd v1.5.2PL0 Copyright (c) Steve Scherf et al.
# Submitted via: audiograbber 1.83.01
#
DISCID=6109d209
DTITLE=Eddie Taylor - Still not ready for Eddie
DYEAR=1985
DGENRE=Chicago Blues
TTITLE0=Bad boy
TTITLE1=If you don't want me baby
TTITLE2=Clouds in my heart
TTITLE3=Knockin' at your door
TTITLE4=Sittin' here thinking
TTITLE5=Big town playboy
TTITLE6=Look on yonder's wall
TTITLE7=Anna Lee
TTITLE8=Boogaloo farm
EXTD=Letzte Aufnahmen des legendären Gitarristen, live aufgenommen im Antone's 
EXTD=Club in Austin, TX
EXTT0=
EXTT1=
EXTT2=
EXTT3=
EXTT4=
EXTT5=
EXTT6=
EXTT7=
EXTT8=
PLAYORDER=
